<mxfile host="app.diagrams.net" modified="2022-07-22T07:35:36.437Z" agent="5.0 (Windows NT 10.0; Win64; x64) AppleWebKit/537.36 (KHTML, like Gecko) Chrome/103.0.0.0 Safari/537.36" etag="dUR7BAvmRWDutNluF9Bi" version="20.1.4" type="github">
  <diagram id="KVY6no1K6YWnrOefNrec" name="第 1 页">
    <mxGraphModel dx="1422" dy="758" grid="1" gridSize="10" guides="1" tooltips="1" connect="1" arrows="1" fold="1" page="1" pageScale="1" pageWidth="827" pageHeight="1169" math="0" shadow="0">
      <root>
        <mxCell id="0" />
        <mxCell id="1" parent="0" />
        <mxCell id="_FhrW8uc3Y3nN86gRkuY-4" value="" style="edgeStyle=orthogonalEdgeStyle;rounded=0;orthogonalLoop=1;jettySize=auto;html=1;" edge="1" parent="1" source="_FhrW8uc3Y3nN86gRkuY-1" target="_FhrW8uc3Y3nN86gRkuY-3">
          <mxGeometry relative="1" as="geometry" />
        </mxCell>
        <mxCell id="_FhrW8uc3Y3nN86gRkuY-7" value="" style="edgeStyle=orthogonalEdgeStyle;rounded=0;orthogonalLoop=1;jettySize=auto;html=1;" edge="1" parent="1" source="_FhrW8uc3Y3nN86gRkuY-1" target="_FhrW8uc3Y3nN86gRkuY-6">
          <mxGeometry relative="1" as="geometry" />
        </mxCell>
        <mxCell id="_FhrW8uc3Y3nN86gRkuY-1" value="Throwable" style="rounded=0;whiteSpace=wrap;html=1;fillColor=#FF9933;" vertex="1" parent="1">
          <mxGeometry x="240" y="50" width="120" height="60" as="geometry" />
        </mxCell>
        <mxCell id="_FhrW8uc3Y3nN86gRkuY-3" value="ERROR&lt;br&gt;不可抗力" style="rounded=0;whiteSpace=wrap;html=1;fillColor=#FF0000;" vertex="1" parent="1">
          <mxGeometry x="110" y="180" width="120" height="60" as="geometry" />
        </mxCell>
        <mxCell id="_FhrW8uc3Y3nN86gRkuY-9" value="" style="edgeStyle=orthogonalEdgeStyle;rounded=0;orthogonalLoop=1;jettySize=auto;html=1;exitX=0.5;exitY=1;exitDx=0;exitDy=0;" edge="1" parent="1" source="_FhrW8uc3Y3nN86gRkuY-6" target="_FhrW8uc3Y3nN86gRkuY-8">
          <mxGeometry relative="1" as="geometry" />
        </mxCell>
        <mxCell id="_FhrW8uc3Y3nN86gRkuY-11" value="" style="edgeStyle=orthogonalEdgeStyle;rounded=0;orthogonalLoop=1;jettySize=auto;html=1;exitX=0.5;exitY=1;exitDx=0;exitDy=0;" edge="1" parent="1" source="_FhrW8uc3Y3nN86gRkuY-6" target="_FhrW8uc3Y3nN86gRkuY-10">
          <mxGeometry relative="1" as="geometry" />
        </mxCell>
        <mxCell id="_FhrW8uc3Y3nN86gRkuY-6" value="Exception" style="rounded=0;whiteSpace=wrap;html=1;fillColor=#00FF00;" vertex="1" parent="1">
          <mxGeometry x="390" y="180" width="120" height="60" as="geometry" />
        </mxCell>
        <mxCell id="_FhrW8uc3Y3nN86gRkuY-13" value="" style="edgeStyle=orthogonalEdgeStyle;rounded=0;orthogonalLoop=1;jettySize=auto;html=1;" edge="1" parent="1" source="_FhrW8uc3Y3nN86gRkuY-8" target="_FhrW8uc3Y3nN86gRkuY-12">
          <mxGeometry relative="1" as="geometry" />
        </mxCell>
        <mxCell id="_FhrW8uc3Y3nN86gRkuY-15" value="" style="edgeStyle=orthogonalEdgeStyle;rounded=0;orthogonalLoop=1;jettySize=auto;html=1;" edge="1" parent="1" source="_FhrW8uc3Y3nN86gRkuY-8" target="_FhrW8uc3Y3nN86gRkuY-14">
          <mxGeometry relative="1" as="geometry" />
        </mxCell>
        <mxCell id="_FhrW8uc3Y3nN86gRkuY-17" value="" style="edgeStyle=orthogonalEdgeStyle;rounded=0;orthogonalLoop=1;jettySize=auto;html=1;exitX=0.5;exitY=1;exitDx=0;exitDy=0;" edge="1" parent="1" source="_FhrW8uc3Y3nN86gRkuY-8" target="_FhrW8uc3Y3nN86gRkuY-16">
          <mxGeometry relative="1" as="geometry" />
        </mxCell>
        <mxCell id="_FhrW8uc3Y3nN86gRkuY-8" value="RuntimeException&lt;br&gt;(非受检异常)" style="rounded=0;whiteSpace=wrap;html=1;fillColor=#0000FF;" vertex="1" parent="1">
          <mxGeometry x="140" y="320" width="120" height="60" as="geometry" />
        </mxCell>
        <mxCell id="_FhrW8uc3Y3nN86gRkuY-20" value="" style="edgeStyle=orthogonalEdgeStyle;rounded=0;orthogonalLoop=1;jettySize=auto;html=1;" edge="1" parent="1" source="_FhrW8uc3Y3nN86gRkuY-10" target="_FhrW8uc3Y3nN86gRkuY-19">
          <mxGeometry relative="1" as="geometry" />
        </mxCell>
        <mxCell id="_FhrW8uc3Y3nN86gRkuY-23" value="" style="edgeStyle=orthogonalEdgeStyle;rounded=0;orthogonalLoop=1;jettySize=auto;html=1;" edge="1" parent="1" source="_FhrW8uc3Y3nN86gRkuY-10" target="_FhrW8uc3Y3nN86gRkuY-22">
          <mxGeometry relative="1" as="geometry" />
        </mxCell>
        <mxCell id="_FhrW8uc3Y3nN86gRkuY-10" value="checked异常" style="rounded=0;whiteSpace=wrap;html=1;" vertex="1" parent="1">
          <mxGeometry x="600" y="320" width="120" height="60" as="geometry" />
        </mxCell>
        <mxCell id="_FhrW8uc3Y3nN86gRkuY-12" value="可预测异常" style="rounded=0;whiteSpace=wrap;html=1;fillColor=#0000FF;" vertex="1" parent="1">
          <mxGeometry x="20" y="460" width="120" height="60" as="geometry" />
        </mxCell>
        <mxCell id="_FhrW8uc3Y3nN86gRkuY-14" value="需要捕捉异常" style="rounded=0;whiteSpace=wrap;html=1;fillColor=#0000FF;" vertex="1" parent="1">
          <mxGeometry x="150" y="460" width="120" height="60" as="geometry" />
        </mxCell>
        <mxCell id="_FhrW8uc3Y3nN86gRkuY-16" value="可透出异常" style="rounded=0;whiteSpace=wrap;html=1;fillColor=#6666FF;" vertex="1" parent="1">
          <mxGeometry x="290" y="460" width="120" height="60" as="geometry" />
        </mxCell>
        <mxCell id="_FhrW8uc3Y3nN86gRkuY-19" value="引起注意型" style="rounded=0;whiteSpace=wrap;html=1;fillColor=#006600;" vertex="1" parent="1">
          <mxGeometry x="480" y="460" width="120" height="60" as="geometry" />
        </mxCell>
        <mxCell id="_FhrW8uc3Y3nN86gRkuY-22" value="坦然处置型" style="rounded=0;whiteSpace=wrap;html=1;fillColor=#006600;" vertex="1" parent="1">
          <mxGeometry x="660" y="460" width="120" height="60" as="geometry" />
        </mxCell>
        <mxCell id="_FhrW8uc3Y3nN86gRkuY-24" value="RuntimeException&lt;br&gt;(非受检异常)" style="rounded=0;whiteSpace=wrap;html=1;fillColor=#6666FF;" vertex="1" parent="1">
          <mxGeometry x="140" y="320" width="120" height="60" as="geometry" />
        </mxCell>
        <mxCell id="_FhrW8uc3Y3nN86gRkuY-25" value="可预测异常" style="rounded=0;whiteSpace=wrap;html=1;fillColor=#6666FF;" vertex="1" parent="1">
          <mxGeometry x="20" y="460" width="120" height="60" as="geometry" />
        </mxCell>
        <mxCell id="_FhrW8uc3Y3nN86gRkuY-26" value="需要捕捉异常" style="rounded=0;whiteSpace=wrap;html=1;fillColor=#6666FF;" vertex="1" parent="1">
          <mxGeometry x="150" y="460" width="120" height="60" as="geometry" />
        </mxCell>
      </root>
    </mxGraphModel>
  </diagram>
</mxfile>
